<?xml version="1.0" encoding="iso-8859-1"?>
<!-- Generator: Adobe Illustrator 19.0.0, SVG Export Plug-In . SVG Version: 6.00 Build 0)  -->
<svg version="1.1" id="Capa_1" xmlns="http://www.w3.org/2000/svg" xmlns:xlink="http://www.w3.org/1999/xlink" x="0px" y="0px"
	 viewBox="0 0 511.982 511.982" style="enable-background:new 0 0 511.982 511.982;" xml:space="preserve">
<g>
	<g transform="translate(1)">
		<path style="fill:#CFD8DC;" d="M426.158,9.188l-64.149,23.349l-32.075,11.674l-48.113,17.511
			c-8.821,3.21-12.127,16.582-7.282,29.893c4.845,13.311,15.973,21.429,24.793,18.219l48.112-17.512l32.075-11.674l64.15-23.349
			L426.158,9.188z"/>
		<g>
			<path style="fill:#607D8B;" d="M363.351,136.072l-15.906-43.749l-17.511-48.112c-1.597-4.428,0.682-9.314,5.1-10.937
				l16.037-5.837c4.428-1.597,9.314,0.682,10.937,5.1l17.511,48.112l15.906,43.749L363.351,136.072z"/>
			<path style="fill:#607D8B;" d="M486.032,223.524l-127.317,46.677l-20.651,7.509l-115.285,42.24l-20.821,7.68L70.459,375.759
				c-12.459,4.523-28.416-5.717-41.387-24.576c-5.805-8.698-10.533-18.067-14.08-27.904c-12.885-35.499-8.96-69.376,8.704-75.861
				l132.181-48.384l21.504-7.851l0.085-0.085l114.688-41.984L314,141.092l125.269-45.909c8.624-2.2,17.776,0.112,24.32,6.144
				c14.476,12.26,25.26,28.302,31.147,46.336C507.621,183.076,503.696,217.039,486.032,223.524z"/>
		</g>
		<path style="fill:#F5F5F5;" d="M468.965,205.092L341.648,251.77l-20.651,7.509l-115.285,42.24l-20.821,7.68L53.392,357.327
			c-8.624,2.2-17.776-0.112-24.32-6.144c-5.805-8.698-10.533-18.067-14.08-27.904c-12.885-35.499-8.96-69.376,8.704-75.861
			l132.181-48.384l21.504-7.851l0.085-0.085l114.688-41.984L314,141.092l125.269-45.909c8.624-2.2,17.776,0.112,24.32,6.144
			c5.805,8.698,10.533,18.067,14.08,27.904C490.555,164.644,486.629,198.607,468.965,205.092z"/>
		
			<ellipse transform="matrix(-0.342 -0.9397 0.9397 -0.342 552.4299 453.3022)" style="fill:#00BCD4;" cx="434.918" cy="33.243" rx="25.6" ry="17.067"/>
		<g>
			<polygon style="fill:#CFD8DC;" points="280.464,275.407 280.464,349.109 314.597,349.109 314.597,252.751 			"/>
			<path style="fill:#CFD8DC;" d="M271.931,358.436c-0.595-0.071-1.193-0.099-1.792-0.085c-7.009,0.001-13.445,3.875-16.725,10.069
				l-71.424,134.997h42.667l62.123-117.419c0.657-1.217,1.173-2.505,1.536-3.84h18.432c0.363,1.335,0.878,2.623,1.536,3.84
				l62.123,117.419h42.667L341.648,368.42c-3.281-6.194-9.716-10.069-16.725-10.069c-0.599-0.014-1.197,0.014-1.792,0.085H271.931z"
				/>
		</g>
		<circle style="fill:#607D8B;" cx="297.531" cy="358.351" r="25.6"/>
		<path style="fill:#00BCD4;" d="M486.032,223.524c-17.749,6.4-42.581-17.067-55.467-52.48s-8.96-69.376,8.704-75.861
			c17.749-6.4,42.581,17.067,55.467,52.48C507.621,183.076,503.696,217.039,486.032,223.524z"/>
		<path style="fill:#FFB301;" d="M365.797,267.556l-136.192,49.92l-0.171-0.597c-12.459,4.523-28.331-5.632-41.216-24.32
			c6.55,5.893,15.622,8.105,24.149,5.888l0.171,0.597L333.968,254.5c10.752,11.093,22.272,16.213,31.744,12.8L365.797,267.556z"/>
		<path style="fill:#FEC108;" d="M333.968,254.5l-121.429,44.544l-17.408,8.107c-7.253,2.645,1.451-8.448-6.912-14.592
			c-5.929-8.742-10.717-18.205-14.251-28.16c-11.861-32.597-9.472-64,4.779-73.813c0.085,0,0.085,0,0.171-0.085l106.923-39.083
			l30.72-11.264c-15.616,8.619-18.517,40.96-6.229,74.667c3.523,9.89,8.283,19.294,14.165,27.989
			C327.325,246.962,330.493,250.872,333.968,254.5L333.968,254.5z"/>
	</g>
	<path d="M475.693,99.551c-12.924-12.233-26.495-16.625-38.271-12.363l-0.033,0.005l-0.022,0.01l-40.044,14.666l-5.867-16.12
		l56.118-20.427l0.016-0.004c13.483-4.908,18.925-22.842,12.379-40.833c-2.646-7.629-7.461-14.321-13.854-19.254
		c-6.134-4.971-14.367-6.498-21.875-4.058l-0.009,0.005l-58.344,21.237c-1.12-0.961-2.36-1.774-3.689-2.417
		c-4.095-1.929-8.792-2.137-13.042-0.579l-16.042,5.837c-5.744,2.03-9.921,7.034-10.893,13.047l-42.313,15.402l-0.007,0.001
		c-11.39,4.148-16.944,17.602-14.482,32.513l-24.872,9.05c-2.874,1.035-4.976,3.528-5.511,6.537
		c-0.534,3.008,0.58,6.073,2.922,8.035c2.342,1.962,5.554,2.523,8.422,1.47l24.894-9.058c2.57,4.488,6.014,8.415,10.127,11.55
		c4.291,3.299,9.523,5.141,14.933,5.258c2.359,0.007,4.7-0.402,6.917-1.208l0.007-0.004l40.087-14.592l5.904,16.22l-30.858,11.302
		c-0.431,0.03-0.859,0.095-1.28,0.195c-0.929,0.371-1.837,0.795-2.718,1.269l-130.855,47.925c-0.935-0.015-1.865,0.128-2.753,0.423
		c-1.628,0.609-3.192,1.378-4.669,2.295L21.81,239.397c-11.767,4.284-19.367,16.387-21.404,34.088
		c-1.482,17.905,1.108,35.913,7.575,52.675c13.025,35.792,36.312,59.179,57.2,59.179c3.123,0.007,6.223-0.534,9.158-1.6l0.017-0.009
		l198.575-72.727v25.011c-3.605,4.095-6.17,8.999-7.475,14.296c-7.973,1.738-14.773,6.905-18.584,14.12l-71.425,134.996
		c-1.4,2.645-1.312,5.83,0.232,8.394c1.544,2.564,4.318,4.131,7.31,4.131h42.667c3.161-0.001,6.063-1.748,7.542-4.542
		l61.036-115.359c2.835,0.579,5.758,0.579,8.594,0l61.036,115.359c1.479,2.793,4.381,4.541,7.541,4.542h42.667
		c2.992,0,5.766-1.568,7.31-4.132c1.544-2.564,1.632-5.749,0.232-8.393l-71.441-135.025c-3.811-7.204-10.605-12.361-18.569-14.094
		c-1.305-5.296-3.869-10.199-7.473-14.293v-43.763l165.761-60.709l0.027-0.007l0.015-0.009c22.85-8.329,28.786-45.622,13.814-86.753
		C497.927,127.775,488.336,112.315,475.693,99.551z M487.714,150.605c11.686,32.109,7.729,60.725-3.63,64.887
		c-11.349,4.149-32.787-15.247-44.486-47.379c-5.562-14.27-7.837-29.609-6.654-44.879c1.221-10.629,5.067-18.104,10.279-20
		l0.008-0.004c1.023-0.36,2.1-0.539,3.184-0.529c6.767,0.88,12.992,4.16,17.546,9.242
		C474.681,122.883,482.8,136.097,487.714,150.605L487.714,150.605z M365.102,259.072c-0.438,0.031-0.873,0.097-1.3,0.2
		c-5.225,1.887-12.962-1.358-20.729-8.713c-10.723-10.939-18.843-24.154-23.754-38.663c-5.563-14.272-7.839-29.615-6.658-44.887
		c0.087-7.235,3.134-14.119,8.432-19.048l96.522-35.351c-0.733,2.851-1.276,5.747-1.625,8.67
		c-1.482,17.904,1.108,35.911,7.575,52.671c6.427,20.004,18.536,37.705,34.85,50.946L365.102,259.072z M230.211,308.476
		c-0.925-0.014-1.846,0.125-2.726,0.413c-5.221,1.883-12.967-1.362-20.733-8.713c-10.721-10.94-18.84-24.155-23.754-38.663
		c-10.741-29.514-8.25-56.021,1.03-63.353l113.224-41.468c-0.692,2.753-1.209,5.547-1.546,8.366
		c-1.48,17.904,1.11,35.91,7.575,52.671c5.822,16.996,15.413,32.455,28.054,45.221c2.235,2.121,4.614,4.086,7.12,5.881
		L230.211,308.476z M373.945,37.636l35.268-12.837c-0.279,5.852,0.619,11.7,2.642,17.198c1.985,5.515,5.057,10.575,9.033,14.881
		L385.62,69.716L373.945,37.636z M443.931,30.322c3.563,9.792,1.087,17.771-2.183,18.963c-2.145,0.35-4.331-0.306-5.929-1.779
		c-3.667-2.948-6.415-6.883-7.921-11.342l-0.004-0.004c-1.71-4.382-2.134-9.161-1.221-13.775c0.272-2.161,1.531-4.075,3.408-5.179
		c0.358-0.124,0.734-0.184,1.113-0.179c1.767,0.147,3.448,0.83,4.817,1.958C439.677,21.931,442.425,25.865,443.931,30.322
		L443.931,30.322z M297.417,101.817l-0.007,0.001c-2.141,0.355-4.326-0.302-5.917-1.779c-3.671-2.942-6.423-6.873-7.932-11.329
		l-0.001-0.009l-0.006-0.009c-3.506-9.636-1.006-17.786,2.189-18.953l0.006-0.004l40.083-14.59l11.677,32.079L297.417,101.817z
		 M338.952,41.293l16.037-5.838l26.31,72.282l-16.029,5.87L338.952,41.293z M68.502,367.701
		c-11.413,4.096-32.796-15.254-44.488-47.375c-5.562-14.273-7.836-29.615-6.654-44.888c1.225-10.625,5.067-18.104,10.3-20.008
		L160.7,206.704c-3.706,20.399-1.534,41.432,6.263,60.643c5.82,16.997,15.411,32.457,28.054,45.221
		c2.314,2.204,4.783,4.24,7.388,6.091L68.502,367.701z M220.518,494.884H197.16l64.779-122.442c0.937-1.752,2.366-3.191,4.111-4.141
		c2.123,6.952,6.413,13.043,12.244,17.383L220.518,494.884z M281.464,358.351c0-9.426,7.641-17.067,17.067-17.067
		c9.426,0,17.067,7.641,17.067,17.067c0,9.426-7.641,17.067-17.067,17.067C289.109,375.408,281.473,367.773,281.464,358.351
		L281.464,358.351z M335.106,372.414l64.796,122.47h-23.358l-57.776-109.199c5.842-4.347,10.137-10.452,12.255-17.419
		C332.75,369.233,334.166,370.672,335.106,372.414L335.106,372.414z M307.064,325.429c-5.574-1.616-11.493-1.616-17.067,0v-20.677
		l17.067-6.25V325.429z"/>
</g>
<g>
</g>
<g>
</g>
<g>
</g>
<g>
</g>
<g>
</g>
<g>
</g>
<g>
</g>
<g>
</g>
<g>
</g>
<g>
</g>
<g>
</g>
<g>
</g>
<g>
</g>
<g>
</g>
<g>
</g>
</svg>
